<mxfile host="app.diagrams.net" agent="Mozilla/5.0 (Windows NT 10.0; Win64; x64) AppleWebKit/537.36 (KHTML, like Gecko) Chrome/128.0.0.0 Safari/537.36 Edg/128.0.0.0" version="24.7.12">
  <diagram name="Page-1" id="Cz8JYJY7i0z9CKobKJ4v">
    <mxGraphModel dx="1282" dy="567" grid="1" gridSize="10" guides="1" tooltips="1" connect="1" arrows="1" fold="1" page="1" pageScale="1" pageWidth="850" pageHeight="1100" math="0" shadow="0">
      <root>
        <mxCell id="0" />
        <mxCell id="1" parent="0" />
        <mxCell id="_LbHldtwDWJTiW1DbIlX-2" value="" style="rounded=0;whiteSpace=wrap;html=1;" vertex="1" parent="1">
          <mxGeometry x="162" y="276" width="120" height="60" as="geometry" />
        </mxCell>
        <mxCell id="_LbHldtwDWJTiW1DbIlX-3" value="" style="rounded=0;whiteSpace=wrap;html=1;" vertex="1" parent="1">
          <mxGeometry x="482" y="276" width="120" height="60" as="geometry" />
        </mxCell>
        <mxCell id="_LbHldtwDWJTiW1DbIlX-9" value="" style="endArrow=none;html=1;rounded=0;exitX=1;exitY=0.75;exitDx=0;exitDy=0;" edge="1" parent="1" source="_LbHldtwDWJTiW1DbIlX-2">
          <mxGeometry width="50" height="50" relative="1" as="geometry">
            <mxPoint x="682" y="376" as="sourcePoint" />
            <mxPoint x="482" y="316" as="targetPoint" />
            <Array as="points" />
          </mxGeometry>
        </mxCell>
        <mxCell id="_LbHldtwDWJTiW1DbIlX-10" value="eth 1/1/25 - eth 1/1/26" style="edgeLabel;html=1;align=center;verticalAlign=middle;resizable=0;points=[];" vertex="1" connectable="0" parent="_LbHldtwDWJTiW1DbIlX-9">
          <mxGeometry x="-0.312" y="-1" relative="1" as="geometry">
            <mxPoint as="offset" />
          </mxGeometry>
        </mxCell>
        <mxCell id="_LbHldtwDWJTiW1DbIlX-11" value="" style="endArrow=none;html=1;rounded=0;exitX=1;exitY=0.75;exitDx=0;exitDy=0;" edge="1" parent="1">
          <mxGeometry width="50" height="50" relative="1" as="geometry">
            <mxPoint x="284" y="300" as="sourcePoint" />
            <mxPoint x="484" y="295" as="targetPoint" />
            <Array as="points" />
          </mxGeometry>
        </mxCell>
        <mxCell id="_LbHldtwDWJTiW1DbIlX-12" value="eth 1/1/25-eth 1/1/26" style="edgeLabel;html=1;align=center;verticalAlign=middle;resizable=0;points=[];" vertex="1" connectable="0" parent="_LbHldtwDWJTiW1DbIlX-11">
          <mxGeometry x="-0.312" y="-1" relative="1" as="geometry">
            <mxPoint as="offset" />
          </mxGeometry>
        </mxCell>
        <mxCell id="_LbHldtwDWJTiW1DbIlX-14" value="V-Sphere&lt;div&gt;&lt;br&gt;&lt;/div&gt;" style="rounded=0;whiteSpace=wrap;html=1;" vertex="1" parent="1">
          <mxGeometry x="290" y="436" width="120" height="60" as="geometry" />
        </mxCell>
        <mxCell id="_LbHldtwDWJTiW1DbIlX-16" value="N4000 stack device" style="rounded=0;whiteSpace=wrap;html=1;" vertex="1" parent="1">
          <mxGeometry x="310" y="160" width="120" height="60" as="geometry" />
        </mxCell>
        <mxCell id="_LbHldtwDWJTiW1DbIlX-17" value="" style="endArrow=none;html=1;rounded=0;" edge="1" parent="1">
          <mxGeometry width="50" height="50" relative="1" as="geometry">
            <mxPoint x="370" y="160" as="sourcePoint" />
            <mxPoint x="370" y="80" as="targetPoint" />
          </mxGeometry>
        </mxCell>
        <mxCell id="_LbHldtwDWJTiW1DbIlX-18" value="&lt;div&gt;Hyper-Visor&lt;/div&gt;" style="rounded=0;whiteSpace=wrap;html=1;" vertex="1" parent="1">
          <mxGeometry x="305" y="20" width="120" height="60" as="geometry" />
        </mxCell>
        <mxCell id="_LbHldtwDWJTiW1DbIlX-19" value="" style="endArrow=none;html=1;rounded=0;entryX=0.387;entryY=0.993;entryDx=0;entryDy=0;entryPerimeter=0;exitX=0.94;exitY=-0.087;exitDx=0;exitDy=0;exitPerimeter=0;" edge="1" parent="1" source="_LbHldtwDWJTiW1DbIlX-14" target="_LbHldtwDWJTiW1DbIlX-3">
          <mxGeometry width="50" height="50" relative="1" as="geometry">
            <mxPoint x="355" y="432" as="sourcePoint" />
            <mxPoint x="405" y="382" as="targetPoint" />
          </mxGeometry>
        </mxCell>
        <mxCell id="_LbHldtwDWJTiW1DbIlX-20" value="" style="endArrow=none;html=1;rounded=0;exitX=0.127;exitY=0.007;exitDx=0;exitDy=0;exitPerimeter=0;" edge="1" parent="1" source="_LbHldtwDWJTiW1DbIlX-14">
          <mxGeometry width="50" height="50" relative="1" as="geometry">
            <mxPoint x="365" y="442" as="sourcePoint" />
            <mxPoint x="230" y="340" as="targetPoint" />
          </mxGeometry>
        </mxCell>
      </root>
    </mxGraphModel>
  </diagram>
</mxfile>
